<mxfile host="app.diagrams.net" modified="2023-04-24T14:19:57.194Z" agent="Mozilla/5.0 (Windows NT 10.0; Win64; x64) AppleWebKit/537.36 (KHTML, like Gecko) Chrome/112.0.0.0 Safari/537.36 Edg/112.0.1722.58" etag="jWmdA0CLHmHhNUemog-m" version="21.2.1" type="github">
  <diagram name="Page-1" id="b5b7bab2-c9e2-2cf4-8b2a-24fd1a2a6d21">
    <mxGraphModel dx="1870" dy="1204" grid="1" gridSize="10" guides="1" tooltips="1" connect="1" arrows="1" fold="1" page="1" pageScale="1" pageWidth="827" pageHeight="1169" background="none" math="0" shadow="0">
      <root>
        <mxCell id="0" />
        <mxCell id="1" parent="0" />
        <mxCell id="6e0c8c40b5770093-72" value="" style="shape=folder;fontStyle=1;spacingTop=10;tabWidth=194;tabHeight=22;tabPosition=left;html=1;rounded=0;shadow=0;comic=0;labelBackgroundColor=none;strokeWidth=1;fillColor=none;fontFamily=Verdana;fontSize=10;align=center;" parent="1" vertex="1">
          <mxGeometry x="326.5" y="114.5" width="1001" height="940" as="geometry" />
        </mxCell>
        <mxCell id="6e0c8c40b5770093-18" value="" style="group" parent="1" vertex="1" connectable="0">
          <mxGeometry x="361.5" y="294.5" width="598.5" height="130" as="geometry" />
        </mxCell>
        <mxCell id="6e0c8c40b5770093-11" value="" style="shape=folder;fontStyle=1;spacingTop=10;tabWidth=123;tabHeight=24;tabPosition=left;html=1;rounded=0;shadow=0;comic=0;labelBackgroundColor=none;strokeWidth=1;fontFamily=Verdana;fontSize=10;align=center;" parent="6e0c8c40b5770093-18" vertex="1">
          <mxGeometry width="598.5" height="130" as="geometry" />
        </mxCell>
        <object label="&lt;font face=&quot;Times New Roman&quot; style=&quot;font-size: 21px;&quot;&gt;&lt;b&gt;Nginx&lt;/b&gt;&lt;/font&gt;" nginx="" id="Jux_5TjAcz0YUs9LWTu1-11">
          <mxCell style="rounded=0;whiteSpace=wrap;html=1;" vertex="1" parent="6e0c8c40b5770093-18">
            <mxGeometry x="52.5" y="45.5" width="120" height="60" as="geometry" />
          </mxCell>
        </object>
        <object label="&lt;font face=&quot;Times New Roman&quot; style=&quot;font-size: 21px;&quot;&gt;&lt;b&gt;Nginx&lt;/b&gt;&lt;/font&gt;" nginx="" id="Jux_5TjAcz0YUs9LWTu1-12">
          <mxCell style="rounded=0;whiteSpace=wrap;html=1;" vertex="1" parent="6e0c8c40b5770093-18">
            <mxGeometry x="448.5" y="45.5" width="120" height="60" as="geometry" />
          </mxCell>
        </object>
        <mxCell id="Jux_5TjAcz0YUs9LWTu1-13" value="" style="endArrow=classic;startArrow=classic;html=1;rounded=0;entryX=0;entryY=0.5;entryDx=0;entryDy=0;exitX=1;exitY=0.5;exitDx=0;exitDy=0;" edge="1" parent="6e0c8c40b5770093-18" source="Jux_5TjAcz0YUs9LWTu1-11" target="Jux_5TjAcz0YUs9LWTu1-12">
          <mxGeometry width="50" height="50" relative="1" as="geometry">
            <mxPoint x="368.5" y="315.5" as="sourcePoint" />
            <mxPoint x="418.5" y="265.5" as="targetPoint" />
          </mxGeometry>
        </mxCell>
        <mxCell id="Jux_5TjAcz0YUs9LWTu1-14" value="&lt;font style=&quot;font-size: 21px;&quot;&gt;Keepalive&lt;/font&gt;" style="edgeLabel;html=1;align=center;verticalAlign=middle;resizable=0;points=[];" vertex="1" connectable="0" parent="Jux_5TjAcz0YUs9LWTu1-13">
          <mxGeometry x="0.2355" relative="1" as="geometry">
            <mxPoint x="1" as="offset" />
          </mxGeometry>
        </mxCell>
        <mxCell id="6e0c8c40b5770093-30" value="" style="group;strokeWidth=5;" parent="1" vertex="1" connectable="0">
          <mxGeometry x="1030" y="150" width="120" height="420" as="geometry" />
        </mxCell>
        <mxCell id="6e0c8c40b5770093-24" value="" style="group" parent="6e0c8c40b5770093-30" vertex="1" connectable="0">
          <mxGeometry width="120" height="420" as="geometry" />
        </mxCell>
        <mxCell id="6e0c8c40b5770093-25" value="" style="shape=folder;fontStyle=1;spacingTop=10;tabWidth=123;tabHeight=24;tabPosition=left;html=1;rounded=0;shadow=0;comic=0;labelBackgroundColor=none;strokeWidth=1;fontFamily=Verdana;fontSize=10;align=center;" parent="6e0c8c40b5770093-24" vertex="1">
          <mxGeometry width="110" height="420" as="geometry" />
        </mxCell>
        <mxCell id="6e0c8c40b5770093-27" value="&lt;span style=&quot;font-weight: normal;&quot;&gt;Usre Getaway&lt;/span&gt;" style="shape=folder;fontStyle=1;spacingTop=10;tabWidth=50;tabHeight=17;tabPosition=left;html=1;rounded=0;shadow=0;comic=0;labelBackgroundColor=none;strokeWidth=1;fontFamily=Verdana;fontSize=10;align=center;" parent="6e0c8c40b5770093-24" vertex="1">
          <mxGeometry x="5" y="69.125" width="100" height="61.25" as="geometry" />
        </mxCell>
        <mxCell id="Jux_5TjAcz0YUs9LWTu1-15" value="&lt;p&gt;路由网关集群&lt;/p&gt;" style="rounded=0;whiteSpace=wrap;html=1;fillColor=#dae8fc;strokeColor=#6c8ebf;" vertex="1" parent="6e0c8c40b5770093-24">
          <mxGeometry width="100" height="26.25" as="geometry" />
        </mxCell>
        <mxCell id="Jux_5TjAcz0YUs9LWTu1-17" value="&lt;font style=&quot;font-weight: normal; font-size: 11px;&quot;&gt;Storage&amp;nbsp;Getaway&lt;/font&gt;" style="shape=folder;fontStyle=1;spacingTop=10;tabWidth=50;tabHeight=17;tabPosition=left;html=1;rounded=0;shadow=0;comic=0;labelBackgroundColor=none;strokeWidth=1;fontFamily=Verdana;fontSize=10;align=center;" vertex="1" parent="6e0c8c40b5770093-24">
          <mxGeometry x="5" y="227.5" width="100" height="61.25" as="geometry" />
        </mxCell>
        <mxCell id="Jux_5TjAcz0YUs9LWTu1-19" value="" style="ellipse;whiteSpace=wrap;html=1;strokeWidth=1;" vertex="1" parent="6e0c8c40b5770093-24">
          <mxGeometry x="45" y="315" width="10" height="8.75" as="geometry" />
        </mxCell>
        <mxCell id="Jux_5TjAcz0YUs9LWTu1-20" value="" style="ellipse;whiteSpace=wrap;html=1;strokeWidth=1;" vertex="1" parent="6e0c8c40b5770093-24">
          <mxGeometry x="45" y="332.5" width="10" height="8.75" as="geometry" />
        </mxCell>
        <mxCell id="Jux_5TjAcz0YUs9LWTu1-21" value="" style="ellipse;whiteSpace=wrap;html=1;strokeWidth=1;" vertex="1" parent="6e0c8c40b5770093-24">
          <mxGeometry x="45" y="350" width="10" height="8.75" as="geometry" />
        </mxCell>
        <mxCell id="Jux_5TjAcz0YUs9LWTu1-22" value="" style="ellipse;whiteSpace=wrap;html=1;strokeWidth=1;" vertex="1" parent="6e0c8c40b5770093-24">
          <mxGeometry x="45" y="367.5" width="10" height="8.75" as="geometry" />
        </mxCell>
        <mxCell id="Jux_5TjAcz0YUs9LWTu1-16" value="&lt;font style=&quot;font-size: 11px; font-weight: normal;&quot;&gt;Article Getaway&lt;/font&gt;" style="shape=folder;fontStyle=1;spacingTop=10;tabWidth=50;tabHeight=17;tabPosition=left;html=1;rounded=0;shadow=0;comic=0;labelBackgroundColor=none;strokeWidth=1;fontFamily=Verdana;fontSize=10;align=center;" vertex="1" parent="6e0c8c40b5770093-24">
          <mxGeometry x="5" y="140" width="100" height="70" as="geometry" />
        </mxCell>
        <mxCell id="Jux_5TjAcz0YUs9LWTu1-6" style="edgeStyle=orthogonalEdgeStyle;rounded=0;orthogonalLoop=1;jettySize=auto;html=1;exitX=0.5;exitY=0.5;exitDx=0;exitDy=0;exitPerimeter=0;" edge="1" parent="1" source="Jux_5TjAcz0YUs9LWTu1-1" target="Jux_5TjAcz0YUs9LWTu1-2">
          <mxGeometry relative="1" as="geometry" />
        </mxCell>
        <mxCell id="Jux_5TjAcz0YUs9LWTu1-1" value="User" style="shape=umlActor;verticalLabelPosition=bottom;verticalAlign=top;html=1;" vertex="1" parent="1">
          <mxGeometry x="406.5" y="183.5" width="30" height="60" as="geometry" />
        </mxCell>
        <mxCell id="Jux_5TjAcz0YUs9LWTu1-10" value="" style="edgeStyle=orthogonalEdgeStyle;rounded=0;orthogonalLoop=1;jettySize=auto;html=1;" edge="1" parent="1" source="Jux_5TjAcz0YUs9LWTu1-2">
          <mxGeometry relative="1" as="geometry">
            <mxPoint x="520" y="320" as="targetPoint" />
          </mxGeometry>
        </mxCell>
        <mxCell id="Jux_5TjAcz0YUs9LWTu1-2" value="Device" style="image;aspect=fixed;perimeter=ellipsePerimeter;html=1;align=center;shadow=0;dashed=0;spacingTop=3;image=img/lib/active_directory/pda.svg;" vertex="1" parent="1">
          <mxGeometry x="514.5" y="189.5" width="27" height="50" as="geometry" />
        </mxCell>
        <mxCell id="Jux_5TjAcz0YUs9LWTu1-23" value="" style="endArrow=classic;html=1;rounded=0;entryX=0;entryY=0;entryDx=0;entryDy=252.00000000000003;entryPerimeter=0;exitX=1.001;exitY=0.724;exitDx=0;exitDy=0;exitPerimeter=0;" edge="1" parent="1" source="6e0c8c40b5770093-11" target="6e0c8c40b5770093-25">
          <mxGeometry width="50" height="50" relative="1" as="geometry">
            <mxPoint x="920" y="470" as="sourcePoint" />
            <mxPoint x="970" y="420" as="targetPoint" />
          </mxGeometry>
        </mxCell>
        <mxCell id="Jux_5TjAcz0YUs9LWTu1-24" value="" style="endArrow=classic;html=1;rounded=0;exitX=-0.014;exitY=0.847;exitDx=0;exitDy=0;exitPerimeter=0;" edge="1" parent="1" source="6e0c8c40b5770093-25">
          <mxGeometry width="50" height="50" relative="1" as="geometry">
            <mxPoint x="960" y="510" as="sourcePoint" />
            <mxPoint x="998.5" y="518.6907743686077" as="targetPoint" />
          </mxGeometry>
        </mxCell>
        <mxCell id="Jux_5TjAcz0YUs9LWTu1-25" value="" style="rounded=1;whiteSpace=wrap;html=1;" vertex="1" parent="1">
          <mxGeometry x="1190" y="384.5" width="120" height="335.5" as="geometry" />
        </mxCell>
        <mxCell id="Jux_5TjAcz0YUs9LWTu1-26" value="注册中心集群" style="rounded=0;whiteSpace=wrap;html=1;fillColor=#dae8fc;strokeColor=#6c8ebf;" vertex="1" parent="1">
          <mxGeometry x="1190" y="403" width="120" height="30" as="geometry" />
        </mxCell>
        <mxCell id="Jux_5TjAcz0YUs9LWTu1-28" value="Service one" style="ellipse;shape=cloud;whiteSpace=wrap;html=1;" vertex="1" parent="1">
          <mxGeometry x="1190" y="444.5" width="90" height="50" as="geometry" />
        </mxCell>
        <mxCell id="Jux_5TjAcz0YUs9LWTu1-29" value="Service two" style="ellipse;shape=cloud;whiteSpace=wrap;html=1;" vertex="1" parent="1">
          <mxGeometry x="1237.5" y="530.5" width="90" height="50" as="geometry" />
        </mxCell>
        <mxCell id="Jux_5TjAcz0YUs9LWTu1-30" value="Service three" style="ellipse;shape=cloud;whiteSpace=wrap;html=1;" vertex="1" parent="1">
          <mxGeometry x="1170" y="631" width="90" height="50" as="geometry" />
        </mxCell>
        <mxCell id="Jux_5TjAcz0YUs9LWTu1-31" value="" style="endArrow=classic;startArrow=classic;html=1;rounded=0;entryX=0.55;entryY=0.95;entryDx=0;entryDy=0;entryPerimeter=0;exitX=0.825;exitY=0.198;exitDx=0;exitDy=0;exitPerimeter=0;" edge="1" parent="1" source="Jux_5TjAcz0YUs9LWTu1-30" target="Jux_5TjAcz0YUs9LWTu1-29">
          <mxGeometry width="50" height="50" relative="1" as="geometry">
            <mxPoint x="1230" y="654.5" as="sourcePoint" />
            <mxPoint x="1280" y="604.5" as="targetPoint" />
          </mxGeometry>
        </mxCell>
        <mxCell id="Jux_5TjAcz0YUs9LWTu1-38" value="注册" style="edgeLabel;html=1;align=center;verticalAlign=middle;resizable=0;points=[];" vertex="1" connectable="0" parent="Jux_5TjAcz0YUs9LWTu1-31">
          <mxGeometry x="-0.0452" relative="1" as="geometry">
            <mxPoint as="offset" />
          </mxGeometry>
        </mxCell>
        <mxCell id="Jux_5TjAcz0YUs9LWTu1-32" value="" style="endArrow=classic;startArrow=classic;html=1;rounded=0;entryX=0.31;entryY=0.8;entryDx=0;entryDy=0;entryPerimeter=0;" edge="1" parent="1" source="Jux_5TjAcz0YUs9LWTu1-30" target="Jux_5TjAcz0YUs9LWTu1-28">
          <mxGeometry width="50" height="50" relative="1" as="geometry">
            <mxPoint x="1230" y="654.5" as="sourcePoint" />
            <mxPoint x="1280" y="604.5" as="targetPoint" />
          </mxGeometry>
        </mxCell>
        <mxCell id="Jux_5TjAcz0YUs9LWTu1-36" value="注册" style="edgeLabel;html=1;align=center;verticalAlign=middle;resizable=0;points=[];" vertex="1" connectable="0" parent="Jux_5TjAcz0YUs9LWTu1-32">
          <mxGeometry x="0.3492" y="-1" relative="1" as="geometry">
            <mxPoint as="offset" />
          </mxGeometry>
        </mxCell>
        <mxCell id="Jux_5TjAcz0YUs9LWTu1-33" value="" style="endArrow=classic;startArrow=classic;html=1;rounded=0;entryX=0.625;entryY=0.2;entryDx=0;entryDy=0;entryPerimeter=0;exitX=0.667;exitY=1;exitDx=0;exitDy=0;exitPerimeter=0;" edge="1" parent="1" source="Jux_5TjAcz0YUs9LWTu1-28" target="Jux_5TjAcz0YUs9LWTu1-29">
          <mxGeometry width="50" height="50" relative="1" as="geometry">
            <mxPoint x="1230" y="654.5" as="sourcePoint" />
            <mxPoint x="1280" y="604.5" as="targetPoint" />
          </mxGeometry>
        </mxCell>
        <mxCell id="Jux_5TjAcz0YUs9LWTu1-39" value="注册" style="edgeLabel;html=1;align=center;verticalAlign=middle;resizable=0;points=[];" vertex="1" connectable="0" parent="Jux_5TjAcz0YUs9LWTu1-33">
          <mxGeometry x="-0.1021" relative="1" as="geometry">
            <mxPoint as="offset" />
          </mxGeometry>
        </mxCell>
        <mxCell id="Jux_5TjAcz0YUs9LWTu1-42" value="" style="endArrow=classic;html=1;rounded=0;entryX=0.998;entryY=0.392;entryDx=0;entryDy=0;entryPerimeter=0;exitX=-0.003;exitY=0.257;exitDx=0;exitDy=0;exitPerimeter=0;" edge="1" parent="1" source="Jux_5TjAcz0YUs9LWTu1-25" target="6e0c8c40b5770093-25">
          <mxGeometry width="50" height="50" relative="1" as="geometry">
            <mxPoint x="1210" y="300" as="sourcePoint" />
            <mxPoint x="1260" y="250" as="targetPoint" />
          </mxGeometry>
        </mxCell>
        <mxCell id="Jux_5TjAcz0YUs9LWTu1-43" value="获取用例" style="edgeLabel;html=1;align=center;verticalAlign=middle;resizable=0;points=[];" vertex="1" connectable="0" parent="Jux_5TjAcz0YUs9LWTu1-42">
          <mxGeometry x="-0.1181" y="-1" relative="1" as="geometry">
            <mxPoint as="offset" />
          </mxGeometry>
        </mxCell>
        <mxCell id="Jux_5TjAcz0YUs9LWTu1-40" value="" style="endArrow=classic;startArrow=classic;html=1;rounded=0;exitX=0.999;exitY=0.711;exitDx=0;exitDy=0;exitPerimeter=0;entryX=0;entryY=0.25;entryDx=0;entryDy=0;" edge="1" parent="1" source="6e0c8c40b5770093-25" target="Jux_5TjAcz0YUs9LWTu1-25">
          <mxGeometry width="50" height="50" relative="1" as="geometry">
            <mxPoint x="1140" y="320" as="sourcePoint" />
            <mxPoint x="1190" y="270" as="targetPoint" />
          </mxGeometry>
        </mxCell>
        <mxCell id="Jux_5TjAcz0YUs9LWTu1-41" value="注册" style="edgeLabel;html=1;align=center;verticalAlign=middle;resizable=0;points=[];" vertex="1" connectable="0" parent="Jux_5TjAcz0YUs9LWTu1-40">
          <mxGeometry x="-0.0847" relative="1" as="geometry">
            <mxPoint as="offset" />
          </mxGeometry>
        </mxCell>
        <mxCell id="Jux_5TjAcz0YUs9LWTu1-47" value="" style="rounded=1;whiteSpace=wrap;html=1;" vertex="1" parent="1">
          <mxGeometry x="556.5" y="510" width="453.5" height="210" as="geometry" />
        </mxCell>
        <mxCell id="Jux_5TjAcz0YUs9LWTu1-45" value="用户服务" style="image;aspect=fixed;perimeter=ellipsePerimeter;html=1;align=center;shadow=0;dashed=0;spacingTop=3;image=img/lib/active_directory/windows_server.svg;" vertex="1" parent="1">
          <mxGeometry x="619.5" y="525.5" width="49.2" height="60" as="geometry" />
        </mxCell>
        <mxCell id="Jux_5TjAcz0YUs9LWTu1-48" value="文章服务" style="image;aspect=fixed;perimeter=ellipsePerimeter;html=1;align=center;shadow=0;dashed=0;spacingTop=3;image=img/lib/active_directory/windows_server.svg;" vertex="1" parent="1">
          <mxGeometry x="701" y="525" width="49.2" height="60" as="geometry" />
        </mxCell>
        <mxCell id="Jux_5TjAcz0YUs9LWTu1-49" value="存储服务" style="image;aspect=fixed;perimeter=ellipsePerimeter;html=1;align=center;shadow=0;dashed=0;spacingTop=3;image=img/lib/active_directory/windows_server.svg;" vertex="1" parent="1">
          <mxGeometry x="781" y="525" width="49.2" height="60" as="geometry" />
        </mxCell>
        <mxCell id="Jux_5TjAcz0YUs9LWTu1-50" value="积分服务" style="image;aspect=fixed;perimeter=ellipsePerimeter;html=1;align=center;shadow=0;dashed=0;spacingTop=3;image=img/lib/active_directory/windows_server.svg;" vertex="1" parent="1">
          <mxGeometry x="861" y="525" width="49.2" height="60" as="geometry" />
        </mxCell>
        <mxCell id="Jux_5TjAcz0YUs9LWTu1-53" value="" style="rounded=0;whiteSpace=wrap;html=1;" vertex="1" parent="1">
          <mxGeometry x="761" y="470" width="222" height="40" as="geometry" />
        </mxCell>
        <mxCell id="Jux_5TjAcz0YUs9LWTu1-54" value="" style="image;aspect=fixed;perimeter=ellipsePerimeter;html=1;align=center;shadow=0;dashed=0;spacingTop=3;image=img/lib/active_directory/windows_domain.svg;" vertex="1" parent="1">
          <mxGeometry x="764.5" y="476.5" width="28.82" height="24.5" as="geometry" />
        </mxCell>
        <mxCell id="Jux_5TjAcz0YUs9LWTu1-55" value="负载均衡（Ribbon）" style="rounded=0;whiteSpace=wrap;html=1;fillColor=#dae8fc;strokeColor=#6c8ebf;" vertex="1" parent="1">
          <mxGeometry x="891.5" y="470" width="91.5" height="40" as="geometry" />
        </mxCell>
        <mxCell id="Jux_5TjAcz0YUs9LWTu1-56" value="熔断机制（Hystrix）" style="rounded=0;whiteSpace=wrap;html=1;fillColor=#dae8fc;strokeColor=#6c8ebf;" vertex="1" parent="1">
          <mxGeometry x="800" y="470" width="91.5" height="40" as="geometry" />
        </mxCell>
        <mxCell id="Jux_5TjAcz0YUs9LWTu1-57" value="" style="endArrow=none;dashed=1;html=1;dashPattern=1 3;strokeWidth=2;rounded=0;exitX=0.003;exitY=0.565;exitDx=0;exitDy=0;exitPerimeter=0;entryX=1.003;entryY=0.569;entryDx=0;entryDy=0;entryPerimeter=0;" edge="1" parent="1" source="Jux_5TjAcz0YUs9LWTu1-47" target="Jux_5TjAcz0YUs9LWTu1-47">
          <mxGeometry width="50" height="50" relative="1" as="geometry">
            <mxPoint x="1030" y="700" as="sourcePoint" />
            <mxPoint x="1010" y="650" as="targetPoint" />
          </mxGeometry>
        </mxCell>
        <mxCell id="Jux_5TjAcz0YUs9LWTu1-58" value="&lt;font style=&quot;font-size: 17px;&quot;&gt;Feign client&lt;/font&gt;" style="edgeLabel;html=1;align=center;verticalAlign=middle;resizable=0;points=[];" vertex="1" connectable="0" parent="Jux_5TjAcz0YUs9LWTu1-57">
          <mxGeometry x="-0.0386" y="-1" relative="1" as="geometry">
            <mxPoint as="offset" />
          </mxGeometry>
        </mxCell>
        <mxCell id="Jux_5TjAcz0YUs9LWTu1-61" value="用户权限" style="image;aspect=fixed;perimeter=ellipsePerimeter;html=1;align=center;shadow=0;dashed=0;spacingTop=3;image=img/lib/active_directory/generic_server.svg;" vertex="1" parent="1">
          <mxGeometry x="625.5" y="640" width="28.000000000000004" height="50" as="geometry" />
        </mxCell>
        <mxCell id="Jux_5TjAcz0YUs9LWTu1-62" value="积分服务" style="image;aspect=fixed;perimeter=ellipsePerimeter;html=1;align=center;shadow=0;dashed=0;spacingTop=3;image=img/lib/active_directory/generic_server.svg;" vertex="1" parent="1">
          <mxGeometry x="701" y="640" width="28.000000000000004" height="50" as="geometry" />
        </mxCell>
        <mxCell id="Jux_5TjAcz0YUs9LWTu1-64" value="minio" style="image;aspect=fixed;perimeter=ellipsePerimeter;html=1;align=center;shadow=0;dashed=0;spacingTop=3;image=img/lib/active_directory/database.svg;" vertex="1" parent="1">
          <mxGeometry x="470" y="620" width="50" height="37" as="geometry" />
        </mxCell>
        <mxCell id="Jux_5TjAcz0YUs9LWTu1-65" value="" style="endArrow=classic;html=1;rounded=0;entryX=1;entryY=0.25;entryDx=0;entryDy=0;exitX=-0.005;exitY=0.298;exitDx=0;exitDy=0;exitPerimeter=0;" edge="1" parent="1" source="Jux_5TjAcz0YUs9LWTu1-47" target="Jux_5TjAcz0YUs9LWTu1-64">
          <mxGeometry width="50" height="50" relative="1" as="geometry">
            <mxPoint x="1030" y="700" as="sourcePoint" />
            <mxPoint x="1080" y="650" as="targetPoint" />
          </mxGeometry>
        </mxCell>
        <mxCell id="Jux_5TjAcz0YUs9LWTu1-66" value="" style="endArrow=classic;html=1;rounded=0;exitX=-0.007;exitY=0.812;exitDx=0;exitDy=0;exitPerimeter=0;entryX=1;entryY=1;entryDx=0;entryDy=0;" edge="1" parent="1" source="Jux_5TjAcz0YUs9LWTu1-47" target="Jux_5TjAcz0YUs9LWTu1-64">
          <mxGeometry width="50" height="50" relative="1" as="geometry">
            <mxPoint x="1030" y="700" as="sourcePoint" />
            <mxPoint x="1080" y="650" as="targetPoint" />
          </mxGeometry>
        </mxCell>
        <mxCell id="Jux_5TjAcz0YUs9LWTu1-67" value="" style="rounded=1;whiteSpace=wrap;html=1;" vertex="1" parent="1">
          <mxGeometry x="337.5" y="460" width="120" height="210" as="geometry" />
        </mxCell>
        <mxCell id="Jux_5TjAcz0YUs9LWTu1-68" value="消息队列服务" style="rounded=0;whiteSpace=wrap;html=1;" vertex="1" parent="1">
          <mxGeometry x="337.5" y="480" width="120" height="40" as="geometry" />
        </mxCell>
        <mxCell id="Jux_5TjAcz0YUs9LWTu1-69" value="消息队列服务" style="rounded=0;whiteSpace=wrap;html=1;" vertex="1" parent="1">
          <mxGeometry x="337.5" y="535" width="120" height="40" as="geometry" />
        </mxCell>
        <mxCell id="Jux_5TjAcz0YUs9LWTu1-70" value="消息队列服务" style="rounded=0;whiteSpace=wrap;html=1;" vertex="1" parent="1">
          <mxGeometry x="337.5" y="591" width="120" height="40" as="geometry" />
        </mxCell>
        <mxCell id="Jux_5TjAcz0YUs9LWTu1-71" value="" style="shape=flexArrow;endArrow=classic;html=1;rounded=0;entryX=1;entryY=0.5;entryDx=0;entryDy=0;exitX=0;exitY=0.162;exitDx=0;exitDy=0;exitPerimeter=0;" edge="1" parent="1" source="Jux_5TjAcz0YUs9LWTu1-47">
          <mxGeometry width="50" height="50" relative="1" as="geometry">
            <mxPoint x="560" y="545" as="sourcePoint" />
            <mxPoint x="457.5" y="545" as="targetPoint" />
          </mxGeometry>
        </mxCell>
        <mxCell id="Jux_5TjAcz0YUs9LWTu1-72" value="消息队列结群" style="rounded=0;whiteSpace=wrap;html=1;fillColor=#dae8fc;strokeColor=#6c8ebf;" vertex="1" parent="1">
          <mxGeometry x="358" y="438.75" width="80" height="21.25" as="geometry" />
        </mxCell>
        <mxCell id="Jux_5TjAcz0YUs9LWTu1-73" value="" style="endArrow=classic;html=1;rounded=0;exitX=1;exitY=0.5;exitDx=0;exitDy=0;" edge="1" parent="1" source="Jux_5TjAcz0YUs9LWTu1-47" target="Jux_5TjAcz0YUs9LWTu1-25">
          <mxGeometry width="50" height="50" relative="1" as="geometry">
            <mxPoint x="1020" y="690" as="sourcePoint" />
            <mxPoint x="1070" y="640" as="targetPoint" />
          </mxGeometry>
        </mxCell>
        <mxCell id="Jux_5TjAcz0YUs9LWTu1-74" value="注册" style="edgeLabel;html=1;align=center;verticalAlign=middle;resizable=0;points=[];" vertex="1" connectable="0" parent="Jux_5TjAcz0YUs9LWTu1-73">
          <mxGeometry x="-0.1763" y="4" relative="1" as="geometry">
            <mxPoint as="offset" />
          </mxGeometry>
        </mxCell>
        <mxCell id="Jux_5TjAcz0YUs9LWTu1-75" value="" style="endArrow=classic;html=1;rounded=0;entryX=1;entryY=0.75;entryDx=0;entryDy=0;exitX=0.012;exitY=0.561;exitDx=0;exitDy=0;exitPerimeter=0;" edge="1" parent="1" source="Jux_5TjAcz0YUs9LWTu1-25" target="Jux_5TjAcz0YUs9LWTu1-47">
          <mxGeometry width="50" height="50" relative="1" as="geometry">
            <mxPoint x="780" y="710" as="sourcePoint" />
            <mxPoint x="830" y="660" as="targetPoint" />
          </mxGeometry>
        </mxCell>
        <mxCell id="Jux_5TjAcz0YUs9LWTu1-76" value="获取服务用例" style="edgeLabel;html=1;align=center;verticalAlign=middle;resizable=0;points=[];" vertex="1" connectable="0" parent="Jux_5TjAcz0YUs9LWTu1-75">
          <mxGeometry x="0.1344" y="-2" relative="1" as="geometry">
            <mxPoint as="offset" />
          </mxGeometry>
        </mxCell>
        <mxCell id="Jux_5TjAcz0YUs9LWTu1-77" value="" style="ellipse;shape=cloud;whiteSpace=wrap;html=1;" vertex="1" parent="1">
          <mxGeometry x="358" y="810" width="240" height="160" as="geometry" />
        </mxCell>
        <mxCell id="Jux_5TjAcz0YUs9LWTu1-78" value="Redis" style="image;aspect=fixed;perimeter=ellipsePerimeter;html=1;align=center;shadow=0;dashed=0;spacingTop=3;image=img/lib/active_directory/database_cube.svg;" vertex="1" parent="1">
          <mxGeometry x="418" y="855" width="45" height="50" as="geometry" />
        </mxCell>
        <mxCell id="Jux_5TjAcz0YUs9LWTu1-79" value="Redis" style="image;aspect=fixed;perimeter=ellipsePerimeter;html=1;align=center;shadow=0;dashed=0;spacingTop=3;image=img/lib/active_directory/database_cube.svg;" vertex="1" parent="1">
          <mxGeometry x="480" y="855" width="45" height="50" as="geometry" />
        </mxCell>
        <mxCell id="Jux_5TjAcz0YUs9LWTu1-80" value="" style="shape=cube;whiteSpace=wrap;html=1;boundedLbl=1;backgroundOutline=1;darkOpacity=0.05;darkOpacity2=0.1;" vertex="1" parent="1">
          <mxGeometry x="690" y="830" width="330" height="140" as="geometry" />
        </mxCell>
        <mxCell id="Jux_5TjAcz0YUs9LWTu1-81" value="MySQL" style="image;aspect=fixed;perimeter=ellipsePerimeter;html=1;align=center;shadow=0;dashed=0;spacingTop=3;image=img/lib/active_directory/database_partition_5.svg;" vertex="1" parent="1">
          <mxGeometry x="731" y="872" width="50" height="37" as="geometry" />
        </mxCell>
        <mxCell id="Jux_5TjAcz0YUs9LWTu1-82" value="MySQL" style="image;aspect=fixed;perimeter=ellipsePerimeter;html=1;align=center;shadow=0;dashed=0;spacingTop=3;image=img/lib/active_directory/database_partition_5.svg;" vertex="1" parent="1">
          <mxGeometry x="802" y="872" width="50" height="37" as="geometry" />
        </mxCell>
        <mxCell id="Jux_5TjAcz0YUs9LWTu1-83" value="MySQL" style="image;aspect=fixed;perimeter=ellipsePerimeter;html=1;align=center;shadow=0;dashed=0;spacingTop=3;image=img/lib/active_directory/database_partition_5.svg;" vertex="1" parent="1">
          <mxGeometry x="880" y="874" width="50" height="37" as="geometry" />
        </mxCell>
        <mxCell id="Jux_5TjAcz0YUs9LWTu1-84" value="" style="endArrow=classic;html=1;rounded=0;exitX=0.5;exitY=1;exitDx=0;exitDy=0;" edge="1" parent="1" source="Jux_5TjAcz0YUs9LWTu1-47" target="Jux_5TjAcz0YUs9LWTu1-80">
          <mxGeometry width="50" height="50" relative="1" as="geometry">
            <mxPoint x="780" y="1040" as="sourcePoint" />
            <mxPoint x="830" y="990" as="targetPoint" />
          </mxGeometry>
        </mxCell>
        <mxCell id="Jux_5TjAcz0YUs9LWTu1-85" value="" style="endArrow=classic;html=1;rounded=0;exitX=0.25;exitY=1;exitDx=0;exitDy=0;entryX=0.581;entryY=0.167;entryDx=0;entryDy=0;entryPerimeter=0;" edge="1" parent="1" source="Jux_5TjAcz0YUs9LWTu1-47" target="Jux_5TjAcz0YUs9LWTu1-77">
          <mxGeometry width="50" height="50" relative="1" as="geometry">
            <mxPoint x="780" y="1040" as="sourcePoint" />
            <mxPoint x="830" y="990" as="targetPoint" />
          </mxGeometry>
        </mxCell>
        <mxCell id="Jux_5TjAcz0YUs9LWTu1-88" value="Redis 集群" style="text;html=1;strokeColor=none;fillColor=none;align=center;verticalAlign=middle;whiteSpace=wrap;rounded=0;" vertex="1" parent="1">
          <mxGeometry x="420" y="800" width="80" height="30" as="geometry" />
        </mxCell>
        <mxCell id="Jux_5TjAcz0YUs9LWTu1-89" value="数据库集群" style="text;html=1;strokeColor=none;fillColor=none;align=center;verticalAlign=middle;whiteSpace=wrap;rounded=0;" vertex="1" parent="1">
          <mxGeometry x="701" y="800" width="89" height="30" as="geometry" />
        </mxCell>
      </root>
    </mxGraphModel>
  </diagram>
</mxfile>